<svg width="887" height="887" viewBox="0 0 887 887" fill="none" xmlns="http://www.w3.org/2000/svg">
<path d="M443.5 753.137C439.878 753.137 436.182 753.063 432.486 752.989C431.008 752.915 429.825 751.659 429.899 750.18C429.973 748.702 431.23 747.519 432.708 747.593C439.73 747.815 446.9 747.815 453.922 747.593C455.401 747.519 456.657 748.702 456.731 750.18C456.805 751.659 455.622 752.915 454.144 752.989C450.596 753.088 447.048 753.137 443.5 753.137ZM475.432 751.511C474.028 751.511 472.845 750.476 472.771 749.072C472.549 747.593 473.658 746.263 475.136 746.115C482.158 745.376 489.254 744.415 496.203 743.232C497.681 742.936 499.085 743.971 499.307 745.376C499.603 746.854 498.568 748.258 497.09 748.554C490.068 749.737 482.824 750.772 475.728 751.511C475.629 751.511 475.531 751.511 475.432 751.511ZM411.198 751.511C411.1 751.511 411.001 751.486 410.903 751.437C403.807 750.698 396.563 749.737 389.541 748.48C388.063 748.184 387.102 746.78 387.323 745.376C387.619 743.897 389.023 742.863 390.428 743.158C397.376 744.341 404.472 745.376 411.494 746.115C412.972 746.263 414.081 747.593 413.933 749.072C413.786 750.476 412.603 751.511 411.198 751.511ZM517.638 744.193C516.382 744.193 515.347 743.306 514.977 742.123C514.682 740.645 515.569 739.167 516.973 738.797C523.847 737.171 530.722 735.175 537.448 733.032C538.853 732.514 540.331 733.327 540.848 734.732C541.292 736.136 540.479 737.688 539.074 738.132C532.274 740.349 525.252 742.345 518.304 744.045C518.057 744.144 517.836 744.193 517.638 744.193ZM368.992 744.045C368.795 744.045 368.573 744.02 368.327 743.971C361.379 742.271 354.43 740.275 347.556 738.058C346.152 737.541 345.413 736.062 345.856 734.658C346.3 733.179 347.852 732.44 349.256 732.884C355.983 735.101 362.857 737.023 369.657 738.723C371.136 739.093 372.023 740.571 371.653 742.049C371.357 743.232 370.249 744.045 368.992 744.045ZM558.44 730.962C557.332 730.962 556.371 730.297 555.927 729.262C555.336 727.857 556.001 726.305 557.406 725.714C563.984 723.127 570.489 720.17 576.846 717.066C578.176 716.4 579.802 716.992 580.468 718.322C581.133 719.653 580.542 721.279 579.211 721.944C572.78 725.122 566.128 728.079 559.401 730.74C559.106 730.888 558.785 730.962 558.44 730.962ZM328.264 730.814C327.919 730.814 327.574 730.74 327.229 730.592C320.577 727.931 313.998 724.975 307.493 721.796C306.163 721.131 305.645 719.579 306.311 718.174C306.976 716.844 308.528 716.326 309.933 716.992C316.216 720.022 322.72 722.979 329.299 725.64C330.703 726.157 331.368 727.783 330.777 729.114C330.334 730.149 329.373 730.814 328.264 730.814ZM596.951 712.113C596.064 712.113 595.103 711.67 594.66 710.783C593.92 709.526 594.29 707.826 595.621 707.087C601.756 703.539 607.817 699.769 613.656 695.851C614.913 694.965 616.539 695.334 617.426 696.517C618.239 697.773 617.943 699.473 616.687 700.286C610.7 704.352 604.564 708.196 598.355 711.744C597.912 712.039 597.468 712.113 596.951 712.113ZM289.827 712.039C289.384 712.039 288.866 711.891 288.423 711.67C282.214 708.048 276.079 704.204 270.165 700.213C268.909 699.326 268.613 697.625 269.426 696.443C270.239 695.186 271.939 694.891 273.196 695.704C279.035 699.621 285.097 703.465 291.158 706.939C292.488 707.752 292.932 709.378 292.119 710.635C291.675 711.522 290.714 712.039 289.827 712.039ZM632.505 688.164C631.692 688.164 630.879 687.795 630.361 687.129C629.474 685.947 629.696 684.247 630.879 683.36C636.423 678.999 641.892 674.416 647.14 669.685C648.249 668.65 649.949 668.724 650.984 669.833C651.945 670.942 651.871 672.716 650.762 673.676C645.44 678.481 639.823 683.138 634.205 687.573C633.688 687.942 633.096 688.164 632.505 688.164ZM254.347 688.016C253.756 688.016 253.165 687.869 252.647 687.425C247.03 683.064 241.412 678.333 236.09 673.529C234.981 672.568 234.907 670.868 235.942 669.759C236.903 668.65 238.603 668.502 239.712 669.537C244.96 674.268 250.43 678.851 255.973 683.212C257.156 684.099 257.378 685.799 256.491 686.981C255.9 687.647 255.16 688.016 254.347 688.016ZM664.363 659.484C663.698 659.484 663.033 659.263 662.515 658.745C661.406 657.71 661.406 656.01 662.441 654.902C667.32 649.801 672.124 644.553 676.633 639.157C677.594 637.975 679.294 637.827 680.477 638.788C681.586 639.749 681.733 641.449 680.773 642.632C676.19 648.101 671.311 653.497 666.285 658.671C665.767 659.189 665.102 659.484 664.363 659.484ZM222.489 659.337C221.75 659.337 221.085 659.041 220.567 658.524C215.541 653.349 210.663 647.953 206.08 642.484C205.119 641.301 205.267 639.601 206.375 638.64C207.558 637.679 209.258 637.827 210.219 638.936C214.728 644.406 219.533 649.654 224.411 654.754C225.446 655.863 225.446 657.563 224.337 658.598C223.82 659.115 223.154 659.337 222.489 659.337ZM691.934 626.665C691.417 626.665 690.825 626.518 690.382 626.148C689.125 625.261 688.903 623.635 689.79 622.378C693.93 616.687 697.921 610.773 701.691 604.786C702.43 603.53 704.13 603.16 705.387 603.973C706.643 604.786 707.013 606.412 706.274 607.669C702.43 613.73 698.365 619.791 694.151 625.557C693.634 626.296 692.747 626.665 691.934 626.665ZM194.918 626.518C194.105 626.518 193.292 626.148 192.775 625.409C188.488 619.569 184.422 613.582 180.652 607.447C179.839 606.191 180.209 604.564 181.465 603.751C182.722 602.938 184.422 603.382 185.235 604.638C188.931 610.552 192.923 616.539 197.136 622.23C198.023 623.413 197.727 625.113 196.544 626C196.027 626.37 195.51 626.518 194.918 626.518ZM714.7 590.446C714.257 590.446 713.838 590.323 713.444 590.077C712.113 589.411 711.596 587.785 712.335 586.455C715.661 580.246 718.766 573.815 721.648 567.384C722.24 565.98 723.866 565.389 725.196 565.98C726.601 566.645 727.192 568.197 726.601 569.602C723.644 576.106 720.466 582.685 717.066 588.968C716.622 589.929 715.661 590.446 714.7 590.446ZM172.152 590.151C171.191 590.151 170.304 589.633 169.787 588.746C166.386 582.389 163.208 575.885 160.251 569.306C159.66 567.902 160.325 566.35 161.656 565.758C162.986 565.093 164.612 565.758 165.204 567.089C168.087 573.519 171.265 579.95 174.591 586.233C175.256 587.49 174.739 589.19 173.409 589.855C173.014 590.052 172.595 590.151 172.152 590.151ZM732.145 551.344C731.849 551.344 731.553 551.295 731.258 551.197C729.853 550.679 729.114 549.127 729.631 547.722C732.071 541.07 734.288 534.27 736.21 527.469C736.654 526.065 738.132 525.252 739.536 525.621C741.015 526.065 741.828 527.543 741.384 529.022C739.388 535.896 737.171 542.844 734.732 549.57C734.288 550.679 733.253 551.344 732.145 551.344ZM154.708 550.975C153.599 550.975 152.564 550.31 152.194 549.201C149.681 542.474 147.464 535.526 145.468 528.652C145.098 527.174 145.912 525.695 147.316 525.326C148.794 524.882 150.273 525.695 150.716 527.174C152.638 533.974 154.855 540.774 157.221 547.353C157.738 548.757 157.073 550.31 155.669 550.827C155.324 550.926 155.003 550.975 154.708 550.975ZM743.971 510.173C743.823 510.173 743.651 510.148 743.454 510.099C741.976 509.803 741.015 508.325 741.384 506.921C742.789 499.972 744.045 492.95 745.08 486.002C745.228 484.524 746.632 483.489 748.111 483.637C749.589 483.859 750.624 485.263 750.402 486.741C749.367 493.837 748.111 501.007 746.632 508.029C746.337 509.286 745.228 510.173 743.971 510.173ZM142.955 509.803C141.698 509.803 140.516 508.916 140.294 507.66C138.816 500.638 137.559 493.468 136.524 486.372C136.376 484.893 137.411 483.489 138.889 483.341C140.368 483.119 141.698 484.154 141.92 485.633C142.881 492.581 144.138 499.677 145.542 506.551C145.912 508.029 144.951 509.434 143.472 509.729C143.275 509.779 143.103 509.803 142.955 509.803ZM749.958 467.745C749.909 467.745 749.835 467.745 749.737 467.745C748.258 467.597 747.15 466.34 747.298 464.862C747.741 457.84 748.037 450.67 748.037 443.574C748.037 442.096 749.219 440.913 750.698 440.913C752.25 440.913 753.433 442.096 753.433 443.574C753.433 450.818 753.137 458.062 752.62 465.232C752.546 466.636 751.363 467.745 749.958 467.745ZM137.042 467.375C135.637 467.375 134.454 466.266 134.307 464.862C133.863 457.692 133.567 450.448 133.567 443.204V442.539C133.567 441.061 134.898 439.73 136.302 439.804C137.781 439.804 138.963 441.061 138.963 442.539V443.204C138.963 450.3 139.259 457.47 139.703 464.492C139.85 465.971 138.668 467.227 137.189 467.375C137.14 467.375 137.091 467.375 137.042 467.375ZM750.032 424.873C748.628 424.873 747.445 423.764 747.298 422.36C746.854 415.338 746.115 408.168 745.154 401.22C744.932 399.741 745.967 398.411 747.445 398.189C748.924 397.967 750.328 399.002 750.476 400.481C751.511 407.576 752.25 414.82 752.693 421.99C752.841 423.469 751.659 424.799 750.18 424.873C750.131 424.873 750.082 424.873 750.032 424.873ZM137.042 423.838C136.992 423.838 136.943 423.814 136.894 423.764C135.415 423.69 134.233 422.434 134.381 420.882C134.898 413.712 135.637 406.542 136.672 399.372C136.894 397.893 138.224 396.933 139.703 397.08C141.181 397.302 142.216 398.707 141.994 400.185C141.033 407.133 140.294 414.229 139.776 421.325C139.629 422.729 138.446 423.838 137.042 423.838ZM744.119 382.445C742.863 382.445 741.754 381.558 741.532 380.301C740.054 373.353 738.354 366.479 736.432 359.679C735.988 358.2 736.801 356.722 738.28 356.352C739.684 355.909 741.162 356.722 741.606 358.2C743.602 365.074 745.302 372.17 746.78 379.193C747.076 380.671 746.189 382.075 744.71 382.371C744.513 382.42 744.316 382.445 744.119 382.445ZM143.103 381.41C142.906 381.41 142.708 381.385 142.511 381.336C141.033 381.04 140.146 379.562 140.442 378.084C141.92 371.062 143.694 364.04 145.69 357.165C146.133 355.687 147.612 354.874 149.016 355.317C150.494 355.687 151.307 357.239 150.864 358.644C148.942 365.444 147.168 372.318 145.69 379.266C145.468 380.523 144.359 381.41 143.103 381.41ZM732.44 341.199C731.332 341.199 730.297 340.534 729.853 339.425C727.488 332.773 724.753 326.194 721.944 319.69C721.279 318.359 721.944 316.733 723.275 316.142C724.679 315.55 726.231 316.142 726.823 317.546C729.779 324.125 732.514 330.851 734.953 337.577C735.471 338.982 734.732 340.534 733.327 341.052C733.032 341.15 732.736 341.199 732.44 341.199ZM154.929 340.238C154.634 340.238 154.338 340.165 154.042 340.017C152.638 339.573 151.899 338.021 152.416 336.617C154.855 329.816 157.59 323.09 160.547 316.585C161.138 315.181 162.765 314.589 164.169 315.181C165.499 315.846 166.091 317.398 165.499 318.803C162.617 325.233 159.956 331.812 157.516 338.464C157.073 339.573 156.038 340.238 154.929 340.238ZM714.996 302.023C714.035 302.023 713.074 301.506 712.631 300.619C709.304 294.336 705.756 288.127 701.987 282.14C701.174 280.883 701.543 279.257 702.874 278.444C704.13 277.631 705.756 278.074 706.569 279.331C710.339 285.392 714.035 291.749 717.361 298.032C718.1 299.363 717.583 300.989 716.253 301.728C715.858 301.925 715.439 302.023 714.996 302.023ZM172.448 301.136C172.004 301.136 171.585 301.038 171.191 300.841C169.861 300.102 169.417 298.475 170.082 297.145C173.482 290.862 177.104 284.579 180.948 278.518C181.761 277.261 183.387 276.818 184.644 277.631C185.9 278.444 186.344 280.144 185.531 281.401C181.761 287.314 178.139 293.523 174.887 299.732C174.369 300.619 173.409 301.136 172.448 301.136ZM692.304 265.656C691.417 265.656 690.603 265.287 690.086 264.548C685.947 258.856 681.512 253.165 677.003 247.769C676.042 246.66 676.19 244.96 677.372 243.999C678.481 243.038 680.181 243.186 681.142 244.295C685.799 249.838 690.234 255.53 694.447 261.369C695.334 262.552 695.112 264.252 693.856 265.139C693.412 265.509 692.821 265.656 692.304 265.656ZM195.288 264.917C194.697 264.917 194.179 264.77 193.662 264.4C192.479 263.513 192.183 261.813 193.07 260.63C197.284 254.791 201.793 249.099 206.449 243.629C207.41 242.447 209.11 242.299 210.219 243.26C211.402 244.221 211.55 245.921 210.589 247.103C206.006 252.499 201.571 258.117 197.431 263.809C196.914 264.548 196.101 264.917 195.288 264.917ZM664.733 232.764C664.067 232.764 663.328 232.542 662.811 231.95C657.932 226.924 652.758 221.898 647.51 217.167C646.401 216.206 646.327 214.506 647.362 213.397C648.323 212.289 650.023 212.141 651.132 213.176C656.528 217.98 661.702 223.08 666.728 228.255C667.763 229.289 667.689 230.99 666.654 232.024C666.137 232.542 665.398 232.764 664.733 232.764ZM222.859 232.172C222.194 232.172 221.528 231.877 221.011 231.359C219.902 230.324 219.902 228.624 220.937 227.589C225.963 222.415 231.211 217.389 236.533 212.584C237.642 211.55 239.342 211.623 240.303 212.732C241.338 213.841 241.264 215.615 240.155 216.576C234.907 221.307 229.733 226.259 224.855 231.359C224.263 231.877 223.598 232.172 222.859 232.172ZM632.948 204.084C632.357 204.084 631.766 203.862 631.322 203.493C625.705 199.131 619.939 194.918 614.1 191.001C612.917 190.114 612.547 188.488 613.434 187.231C614.248 185.974 615.948 185.679 617.13 186.492C623.118 190.557 628.957 194.844 634.648 199.279C635.831 200.166 635.979 201.866 635.092 203.049C634.575 203.714 633.762 204.084 632.948 204.084ZM254.791 203.493C253.978 203.493 253.165 203.123 252.647 202.458C251.686 201.275 251.908 199.575 253.091 198.688C258.782 194.253 264.696 189.966 270.609 185.974C271.866 185.161 273.566 185.457 274.379 186.714C275.192 187.97 274.896 189.596 273.64 190.483C267.8 194.401 262.035 198.614 256.417 202.975C255.973 203.345 255.382 203.493 254.791 203.493ZM597.468 180.061C597.025 180.061 596.581 179.913 596.138 179.691C590.077 176.143 583.72 172.743 577.437 169.639C576.107 169.047 575.515 167.421 576.18 166.091C576.846 164.686 578.472 164.169 579.802 164.834C586.233 168.013 592.664 171.413 598.873 175.035C600.129 175.774 600.573 177.4 599.834 178.731C599.316 179.544 598.429 180.061 597.468 180.061ZM290.345 179.544C289.384 179.544 288.497 179.1 287.979 178.213C287.24 176.957 287.684 175.256 289.014 174.517C295.223 170.969 301.654 167.495 308.085 164.391C309.415 163.725 311.041 164.317 311.707 165.647C312.372 166.978 311.781 168.604 310.45 169.269C304.093 172.3 297.81 175.7 291.675 179.174C291.232 179.42 290.788 179.544 290.345 179.544ZM559.032 161.212C558.687 161.212 558.367 161.138 558.071 160.991C551.492 158.33 544.766 155.89 538.113 153.673C536.635 153.229 535.896 151.677 536.339 150.273C536.857 148.868 538.335 148.129 539.74 148.573C546.614 150.79 553.414 153.303 560.067 155.964C561.471 156.556 562.136 158.108 561.545 159.512C561.175 160.547 560.141 161.212 559.032 161.212ZM328.929 160.843C327.82 160.843 326.86 160.177 326.416 159.143C325.825 157.738 326.49 156.186 327.894 155.595C334.547 152.934 341.421 150.42 348.295 148.203C349.7 147.759 351.178 148.572 351.696 149.977C352.139 151.381 351.326 152.934 349.922 153.377C343.195 155.521 336.469 157.96 329.89 160.621C329.594 160.769 329.274 160.843 328.929 160.843ZM518.304 147.907C518.107 147.907 517.885 147.883 517.638 147.833C510.838 146.133 503.816 144.655 496.868 143.398C495.39 143.103 494.429 141.698 494.724 140.294C494.946 138.816 496.35 137.781 497.829 138.076C504.925 139.333 512.021 140.811 518.969 142.585C520.447 142.955 521.334 144.433 520.965 145.838C520.669 147.094 519.56 147.907 518.304 147.907ZM369.731 147.612C368.475 147.612 367.366 146.799 367.07 145.616C366.701 144.138 367.588 142.659 369.066 142.29C376.014 140.59 383.184 139.111 390.206 137.855C391.684 137.633 393.089 138.594 393.385 140.072C393.606 141.55 392.645 142.955 391.167 143.177C384.219 144.433 377.197 145.912 370.396 147.538C370.15 147.587 369.928 147.612 369.731 147.612ZM476.171 140.442C476.073 140.442 475.974 140.442 475.876 140.442C468.853 139.703 461.757 139.185 454.661 138.889C453.183 138.889 452 137.633 452.074 136.154C452.074 134.602 453.331 133.494 454.883 133.494C462.053 133.789 469.297 134.307 476.393 135.046C477.871 135.194 478.98 136.524 478.832 138.002C478.684 139.407 477.502 140.442 476.171 140.442ZM411.938 140.294C410.533 140.294 409.351 139.259 409.277 137.929C409.055 136.45 410.164 135.12 411.642 134.972C418.812 134.233 426.056 133.715 433.226 133.494C434.704 133.42 435.961 134.602 436.034 136.081C436.034 137.559 434.926 138.815 433.373 138.889C426.351 139.111 419.181 139.629 412.233 140.294C412.135 140.294 412.036 140.294 411.938 140.294Z" fill="#515A6A"/>
<path d="M382.814 136.524C382.814 103.04 410.016 75.8385 443.5 75.8385C476.984 75.8385 504.186 103.04 504.186 136.524C504.186 170.082 476.984 197.21 443.5 197.21C410.016 197.21 382.814 170.082 382.814 136.524Z" fill="#32CCBC"/>
<path d="M450.374 174.591H436.626C434.556 174.591 432.856 172.891 432.856 170.821V147.168H409.277C407.133 147.168 405.507 145.468 405.507 143.398V129.724C405.507 127.58 407.133 125.954 409.277 125.954H432.856V102.301C432.856 100.231 434.556 98.5309 436.626 98.5309H450.374C452.444 98.5309 454.144 100.231 454.144 102.301V125.954H477.723C479.867 125.954 481.493 127.58 481.493 129.724V143.398C481.493 145.468 479.867 147.168 477.723 147.168H454.144V170.821C454.144 172.891 452.444 174.591 450.374 174.591Z" fill="white"/>
<path d="M750.476 382.814C783.96 382.814 811.162 410.016 811.162 443.5C811.162 476.984 783.96 504.186 750.476 504.186C716.918 504.186 689.79 476.984 689.79 443.5C689.79 410.016 716.918 382.814 750.476 382.814Z" fill="#32CCBC"/>
<path d="M136.524 382.814C170.082 382.814 197.21 410.016 197.21 443.5C197.21 476.984 170.082 504.186 136.524 504.186C103.04 504.186 75.8385 476.984 75.8385 443.5C75.8385 410.016 103.04 382.814 136.524 382.814Z" fill="#32CCBC"/>
<path d="M176.809 451.113C173.187 461.61 164.169 466.34 157.738 468.927C156.95 469.223 156.161 469.519 155.373 469.814C149.607 472.106 144.138 474.249 141.772 479.35C140.811 481.271 138.889 482.38 136.82 482.38C136.746 482.38 136.672 482.38 136.524 482.38C136.45 482.38 136.376 482.38 136.228 482.38C134.233 482.38 132.311 481.271 131.35 479.35C128.911 474.249 123.367 472.032 117.38 469.74L116.419 469.297C108.953 466.414 101.488 462.497 97.4222 453.922C93.5785 445.865 93.7263 436.182 97.7917 428.125C101.857 419.921 109.471 414.525 118.193 413.564C124.845 412.899 131.35 414.894 136.524 419.108C141.033 415.486 146.577 413.49 152.342 413.49C159.882 413.49 167.052 416.89 171.93 422.803C178.213 430.491 180.135 441.578 176.809 451.113Z" fill="white"/>
<path d="M671.385 133.494C671.385 100.009 698.512 72.8079 731.997 72.8079C765.555 72.8079 792.682 100.009 792.682 133.494C792.682 166.978 765.555 194.179 731.997 194.179C698.512 194.179 671.385 166.978 671.385 133.494Z" fill="#32CCBC"/>
<path d="M756.241 158.477L746.263 170.674L746.854 161.877C742.197 163.06 737.245 163.799 731.997 163.799C708.343 163.799 689.199 150.199 689.199 133.494C689.199 116.714 708.343 103.188 731.997 103.188C755.65 103.188 774.868 116.714 774.868 133.494C774.868 143.842 767.477 153.007 756.241 158.477Z" fill="white"/>
<path d="M716.548 133.493C716.548 135.859 714.626 137.781 712.261 137.781C709.896 137.781 707.974 135.859 707.974 133.493C707.974 131.128 709.896 129.206 712.261 129.206C714.626 129.206 716.548 131.128 716.548 133.493Z" fill="#32CCBC"/>
<path d="M736.284 133.493C736.284 135.859 734.362 137.781 731.997 137.781C729.631 137.781 727.71 135.859 727.71 133.493C727.71 131.128 729.631 129.206 731.997 129.206C734.362 129.206 736.284 131.128 736.284 133.493Z" fill="#32CCBC"/>
<path d="M756.094 133.493C756.094 135.859 754.172 137.781 751.806 137.781C749.441 137.781 747.519 135.859 747.519 133.493C747.519 131.128 749.441 129.206 751.806 129.206C754.172 129.206 756.094 131.128 756.094 133.493Z" fill="#32CCBC"/>
<path fill-rule="evenodd" clip-rule="evenodd" d="M768.881 443.5C768.881 453.701 760.603 461.905 750.476 461.905C740.275 461.905 731.997 453.701 731.997 443.5C731.997 433.3 740.275 425.095 750.476 425.095C760.603 425.095 768.881 433.3 768.881 443.5ZM764.742 443.5C764.742 435.665 758.311 429.234 750.476 429.234C742.567 429.234 736.21 435.665 736.21 443.5C736.21 451.335 742.567 457.766 750.476 457.766C758.311 457.766 764.742 451.335 764.742 443.5Z" fill="white"/>
<path fill-rule="evenodd" clip-rule="evenodd" d="M780.856 449.561C780.043 453.627 778.416 457.396 776.273 460.649L782.112 466.562L773.538 475.136L767.625 469.297C764.298 471.514 760.602 473.067 756.537 473.88V482.158H744.341V473.88C740.349 473.067 736.58 471.514 733.327 469.297L727.414 475.136L718.766 466.562L724.679 460.649C722.462 457.396 720.909 453.627 720.096 449.561H711.744V437.439H720.096C720.909 433.373 722.462 429.604 724.679 426.351L718.766 420.438L727.414 411.864L733.327 417.703C736.58 415.486 740.349 413.933 744.341 413.12V404.842H756.537V413.12C760.602 413.933 764.298 415.486 767.625 417.703L773.538 411.864L782.112 420.438L776.273 426.351C778.416 429.604 780.043 433.373 780.856 437.439H789.134V449.561H780.856ZM750.476 420.882C737.984 420.882 727.857 431.008 727.857 443.5C727.857 455.992 737.984 466.119 750.476 466.119C762.968 466.119 773.094 455.992 773.094 443.5C773.094 431.008 762.968 420.882 750.476 420.882Z" fill="white"/>
<path d="M337.725 688.829H345.043L346.152 733.401H340.904L340.017 695.851L327.229 729.631H322.351L310.524 696.221L309.637 733.401H304.389L305.571 688.829H312.815L324.864 722.979L337.725 688.829Z" fill="#32CCBC"/>
<path d="M370.692 688.829H394.419V693.117H376.088V708.565H393.163V712.852H376.088V729.114H395.602V733.401H370.692V688.829Z" fill="#32CCBC"/>
<path d="M444.239 688.829H449.635V733.401H443.722L422.508 697.847V733.401H417.112V688.829H422.951L444.239 724.383V688.829Z" fill="#32CCBC"/>
<path d="M468.706 693.117V688.829H498.05V693.117H486.076V733.401H480.68V693.117H468.706Z" fill="#32CCBC"/>
<path fill-rule="evenodd" clip-rule="evenodd" d="M524.069 688.829H531.239L545.801 733.401H540.479L536.191 719.948H519.191L514.903 733.401H509.581L524.069 688.829ZM527.617 693.56L520.521 715.661H534.713L527.617 693.56Z" fill="#32CCBC"/>
<path d="M565.536 733.401V688.829H570.932V729.114H587.564V733.401H565.536Z" fill="#32CCBC"/>
<path d="M336.764 755.354H342.086V799.926H336.764V779.747H316.142V799.926H310.746V755.354H316.142V775.46H336.764V755.354Z" fill="#32CCBC"/>
<path d="M367.292 755.354H390.945V759.642H372.614V775.09H389.689V779.377H372.614V795.639H392.202V799.926H367.292V755.354Z" fill="#32CCBC"/>
<path fill-rule="evenodd" clip-rule="evenodd" d="M422.803 755.354H429.899L444.535 799.926H439.213L434.852 786.473H417.925L413.564 799.926H408.242L422.803 755.354ZM426.425 760.085L419.255 782.186H433.521L426.425 760.085Z" fill="#32CCBC"/>
<path d="M464.197 799.926V755.354H469.593V795.639H486.224V799.926H464.197Z" fill="#32CCBC"/>
<path d="M496.498 759.642V755.354H525.769V759.642H513.795V799.926H508.399V759.642H496.498Z" fill="#32CCBC"/>
<path d="M570.858 755.354H576.254V799.926H570.858V779.747H550.236V799.926H544.914V755.354H550.236V775.46H570.858V755.354Z" fill="#32CCBC"/>
<path d="M305.793 416.373C304.389 411.938 304.093 406.985 304.906 402.107C305.645 397.45 307.272 393.237 309.637 389.763C302.911 385.697 297.884 378.527 296.036 369.953C292.71 354.726 297.958 338.908 310.007 327.82C321.242 317.472 336.247 312.889 350.439 315.181C348.517 305.645 351.548 294.854 358.644 286.945C365.518 279.257 375.718 274.157 387.545 272.531C394.715 271.496 405.137 271.496 414.451 276.818C423.025 281.77 428.421 290.566 428.421 299.436C428.421 299.486 428.421 299.535 428.421 299.584V396.489V507.29C428.52 507.684 428.52 508.079 428.421 508.473V531.978C428.864 539.37 423.395 550.457 417.038 554.892C409.942 559.919 400.554 562.506 390.354 562.506C384.662 562.506 378.749 561.693 372.762 560.067C360.196 556.666 347.852 546.318 338.908 531.683C333.512 522.813 331.221 513.129 332.403 504.333C330.974 504.629 329.521 504.777 328.042 504.777C317.694 504.777 308.011 498.716 304.832 496.424C291.897 487.406 284.357 472.254 284.653 455.77C284.949 439.582 292.858 424.947 305.793 416.373Z" fill="#8AE6DC"/>
<path d="M601.977 479.793C602.273 496.276 594.734 511.429 581.798 520.447C578.62 522.739 568.937 528.726 558.588 528.726C557.11 528.726 555.656 528.603 554.227 528.356C555.41 537.152 553.118 546.836 547.723 555.632C538.779 570.341 526.435 580.689 513.869 584.09C507.881 585.716 501.968 586.455 496.277 586.455C486.076 586.455 476.689 583.942 469.593 578.915C463.236 574.48 457.766 563.393 458.209 556.001V532.496C458.111 532.101 458.111 531.683 458.209 531.239V420.512C458.209 420.512 458.209 420.487 458.209 420.438V323.607C458.209 323.558 458.209 323.509 458.209 323.459C458.209 314.589 463.605 305.793 472.18 300.841C481.493 295.445 491.915 295.519 499.085 296.554C510.912 298.18 521.113 303.28 527.987 310.894C535.083 318.877 538.113 329.668 536.192 339.204C550.384 336.912 565.389 341.495 576.624 351.843C588.672 362.931 593.92 378.675 590.594 393.976C588.746 402.55 583.72 409.72 576.994 413.712C579.359 417.26 580.985 421.473 581.724 426.13C582.537 431.008 582.242 435.961 580.837 440.396C593.773 448.896 601.682 463.605 601.977 479.793Z" fill="#32CCBC"/>
<path fill-rule="evenodd" clip-rule="evenodd" d="M440.026 544.84C440.026 544.84 440.026 544.864 440.026 544.914C440.395 552.379 434.852 563.541 428.569 568.05C421.399 573.076 411.938 575.663 401.663 575.663C395.972 575.663 389.984 574.85 384.071 573.224C371.431 569.824 359.013 559.401 349.995 544.692C344.673 535.97 342.308 526.361 343.417 517.565C342.086 517.811 340.731 517.934 339.351 517.934C328.929 517.934 319.246 511.799 315.994 509.582C302.984 500.49 295.371 485.189 295.667 468.706C296.036 452.444 303.871 437.808 316.733 429.16C315.476 424.725 315.107 419.847 315.92 414.968C316.659 410.385 318.285 406.246 320.577 402.698C313.85 398.633 308.898 391.463 307.05 382.888C303.724 367.588 308.972 351.696 321.094 340.534C332.329 330.26 347.26 325.603 361.452 327.82C359.605 318.211 362.709 307.567 369.805 299.658C376.679 291.971 386.954 286.797 398.78 285.17C406.024 284.136 416.52 284.062 425.908 289.458C434.556 294.484 440.026 303.354 440.026 312.372C440.026 312.421 440.026 312.47 440.026 312.52V520.152C440.124 520.595 440.124 521.014 440.026 521.408V544.84ZM434.113 545.062C434.113 545.012 434.113 544.988 434.113 544.988C434.113 544.938 434.113 544.889 434.113 544.84V521.704C428.717 514.83 418.59 511.947 410.459 515.199C402.033 518.599 396.563 528.208 397.967 537.226C398.189 538.853 397.08 540.331 395.454 540.627C395.306 540.627 395.158 540.627 395.011 540.627C393.532 540.627 392.276 539.592 392.054 538.113C390.28 526.508 397.376 514.017 408.242 509.655C416.668 506.329 426.795 508.029 434.113 513.499V418.738C429.234 423.395 422.508 426.351 416.077 426.351C415.486 426.351 414.919 426.327 414.377 426.277C405.285 425.538 397.08 419.181 393.754 410.755C390.428 412.899 386.658 414.303 382.74 414.746C381.607 414.894 380.498 414.968 379.414 414.968C370.175 414.968 361.083 410.164 356.057 402.255C355.17 400.85 355.613 399.076 356.944 398.189C358.348 397.302 360.196 397.672 361.083 399.076C365.37 405.876 374.018 409.868 382.001 408.907C389.984 407.872 397.302 401.811 399.741 394.198C402.254 386.51 399.889 377.345 394.05 371.801C392.867 370.692 392.793 368.77 393.976 367.588C395.085 366.405 396.932 366.331 398.189 367.514C405.729 374.684 408.685 386.141 405.433 396.046C404.102 400.111 401.737 403.807 398.706 406.763C400.702 413.933 407.429 419.699 414.894 420.364C422.36 420.955 431.008 415.707 434.113 408.759V359.9C431.698 360.294 429.333 360.492 427.017 360.492C422.138 360.492 417.481 359.605 413.268 357.831C405.285 354.357 399.224 347.63 397.08 339.869C394.715 331.295 397.524 321.907 404.028 316.511C405.285 315.476 407.133 315.624 408.168 316.881C409.203 318.211 409.055 320.059 407.798 321.094C403.141 324.938 401.072 332.034 402.772 338.317C404.398 344.304 409.35 349.626 415.633 352.361C421.029 354.652 427.534 355.17 434.113 353.765V313.481C434.063 313.382 434.039 313.259 434.039 313.111C434.408 306.089 429.899 298.697 422.951 294.632C415.042 290.123 405.876 290.197 399.593 291.01C389.171 292.488 380.153 296.923 374.24 303.576C368.031 310.598 365.444 320.059 367.588 328.116C373.575 324.051 381.927 323.829 388.062 327.82C389.393 328.707 389.836 330.555 388.949 331.886C388.062 333.29 386.215 333.66 384.81 332.773C380.153 329.742 373.353 330.408 369.362 334.325C365.296 338.169 364.409 344.895 367.218 349.7C368.031 351.104 367.588 352.952 366.183 353.765C365.666 354.061 365.148 354.209 364.631 354.209C363.596 354.209 362.635 353.691 362.044 352.73C358.718 347.039 358.865 339.647 362.118 333.956C349.256 331.442 335.434 335.434 325.159 344.895C314.441 354.8 309.933 368.179 312.889 381.632C314.441 388.95 318.729 394.937 324.494 398.115C324.987 397.672 325.48 397.228 325.972 396.785C332.034 392.054 340.46 390.871 346.891 393.902C348.369 394.567 349.034 396.341 348.369 397.893C347.63 399.372 345.856 399.963 344.378 399.298C339.943 397.154 333.955 398.041 329.594 401.515C325.603 404.62 322.72 409.868 321.759 415.855C320.946 421.177 321.611 426.499 323.755 430.786C325.972 435.369 329.964 438.991 334.399 440.396C338.982 441.874 344.23 440.987 347.704 438.104C348.961 436.995 350.882 437.217 351.917 438.474C352.952 439.73 352.804 441.578 351.548 442.687C348.074 445.496 343.565 447.048 338.982 447.048C336.838 447.048 334.695 446.678 332.551 446.013C327.007 444.239 322.203 440.174 319.098 434.778C308.454 442.317 301.876 454.957 301.654 468.78C301.358 483.341 308.011 496.794 319.394 504.703C326.416 509.581 336.764 513.795 344.969 511.06C347.408 504.186 352.139 498.346 358.052 495.094C355.022 491.472 352.878 487.037 352.065 482.38C350.587 473.51 353.913 463.901 360.492 457.84C361.748 456.731 363.596 456.805 364.705 457.988C365.814 459.17 365.74 461.092 364.557 462.201C359.383 466.932 356.796 474.471 357.978 481.345C359.161 488.294 364.04 494.502 370.544 497.311C376.975 500.046 384.884 499.233 390.723 495.316C392.054 494.429 393.902 494.724 394.863 496.129C395.75 497.459 395.38 499.307 394.05 500.268C389.615 503.299 384.145 504.851 378.675 504.851C375.053 504.851 371.505 504.186 368.179 502.781C366.183 501.894 364.335 500.785 362.561 499.455C362.561 499.455 362.537 499.48 362.487 499.529C355.687 502.412 350.513 509.729 349.33 518.008C348.295 525.547 350.365 533.9 355.022 541.587C363.3 555.04 374.388 564.502 385.623 567.532C400.702 571.598 415.486 569.971 425.095 563.171C430.269 559.549 434.408 550.014 434.113 545.062Z" fill="#515A6A"/>
<path d="M402.107 475.728C393.458 474.915 385.475 468.558 382.74 460.279C382.223 458.727 383.11 457.027 384.662 456.509C386.215 455.992 387.841 456.879 388.358 458.431C390.428 464.492 396.267 469.149 402.624 469.814C409.055 470.406 415.633 466.858 418.738 461.24C421.842 455.622 421.325 448.157 417.407 443.057C416.373 441.8 416.668 439.878 417.925 438.917C419.255 437.882 421.103 438.178 422.138 439.435C427.386 446.383 428.199 456.509 423.986 464.123C420.068 471.219 412.085 475.802 404.028 475.802C403.388 475.802 402.747 475.777 402.107 475.728Z" fill="#515A6A"/>
<path fill-rule="evenodd" clip-rule="evenodd" d="M591.333 468.706C591.629 485.189 584.016 500.49 571.006 509.582C567.754 511.799 558.071 517.934 547.649 517.934C546.269 517.934 544.914 517.811 543.583 517.565C544.692 526.361 542.327 535.97 537.005 544.692C527.987 559.401 515.569 569.824 502.929 573.224C497.016 574.85 491.028 575.663 485.337 575.663C475.062 575.663 465.601 573.076 458.431 568.05C452.148 563.541 446.604 552.379 446.974 544.914C446.974 544.864 446.974 544.84 446.974 544.84V521.408C446.876 521.014 446.876 520.595 446.974 520.152V312.52C446.974 312.47 446.974 312.421 446.974 312.372C446.974 303.354 452.444 294.484 461.092 289.458C470.48 284.062 480.976 284.136 488.22 285.17C500.046 286.797 510.321 291.971 517.195 299.658C524.291 307.567 527.395 318.211 525.547 327.82C539.739 325.603 554.671 330.26 565.906 340.534C578.028 351.696 583.276 367.588 579.95 382.888C578.102 391.463 573.15 398.633 566.423 402.698C568.715 406.246 570.341 410.385 571.08 414.968C571.893 419.847 571.524 424.725 570.267 429.16C583.129 437.808 590.964 452.444 591.333 468.706ZM585.346 468.78C585.124 454.957 578.546 442.317 567.902 434.778C564.797 440.174 559.993 444.239 554.449 446.013C552.305 446.678 550.162 447.048 548.018 447.048C543.435 447.048 538.926 445.496 535.452 442.613C534.196 441.578 534.048 439.73 535.083 438.474C536.118 437.217 538.039 436.995 539.296 438.104C542.77 440.987 548.018 441.874 552.601 440.396C557.036 438.991 561.027 435.369 563.245 430.786C565.389 426.499 566.054 421.177 565.241 415.855C564.28 409.868 561.397 404.62 557.406 401.515C553.044 398.041 547.057 397.154 542.622 399.298C541.144 399.963 539.37 399.372 538.631 397.82C537.965 396.341 538.631 394.567 540.109 393.902C546.54 390.871 554.966 392.054 561.027 396.785C561.545 397.228 562.062 397.672 562.506 398.115C568.271 394.937 572.558 388.95 574.111 381.632C577.067 368.179 572.558 354.8 561.841 344.895C551.566 335.434 537.744 331.442 524.882 333.956C528.135 339.647 528.282 346.965 524.956 352.73C524.365 353.691 523.404 354.209 522.369 354.209C521.852 354.209 521.334 354.061 520.817 353.765C519.412 352.952 518.969 351.104 519.782 349.7C522.591 344.895 521.704 338.169 517.638 334.251C513.647 330.408 506.847 329.742 502.19 332.773C500.785 333.66 498.937 333.29 498.05 331.886C497.163 330.555 497.607 328.707 498.937 327.82C505.073 323.829 513.425 324.051 519.412 328.116C521.556 319.985 518.969 310.524 512.76 303.576C506.847 296.923 497.829 292.488 487.406 291.01C481.124 290.197 471.958 290.049 464.049 294.632C457.101 298.697 452.592 306.089 452.961 313.111C452.961 313.259 452.937 313.382 452.887 313.481V353.765C459.466 355.17 465.971 354.652 471.367 352.361C477.649 349.626 482.602 344.304 484.228 338.317C485.928 332.034 483.858 324.938 479.202 321.094C477.945 320.059 477.797 318.137 478.832 316.881C479.867 315.624 481.715 315.476 482.971 316.511C489.476 321.907 492.285 331.295 489.92 339.869C487.776 347.63 481.715 354.357 473.732 357.831C469.519 359.605 464.862 360.492 459.983 360.492C457.667 360.492 455.302 360.27 452.887 359.826V408.759C455.992 415.707 464.64 420.955 472.106 420.364C479.571 419.699 486.298 413.933 488.293 406.763C485.263 403.807 482.898 400.111 481.567 396.046C478.315 386.141 481.271 374.61 488.811 367.514C490.067 366.331 491.915 366.405 493.024 367.588C494.207 368.77 494.133 370.692 492.95 371.801C487.111 377.345 484.745 386.51 487.259 394.198C489.698 401.811 497.016 407.872 504.999 408.907C512.982 409.868 521.63 405.876 525.917 399.076C526.804 397.672 528.652 397.302 530.056 398.189C531.387 399.076 531.83 400.85 530.943 402.255C525.917 410.164 516.825 414.968 507.586 414.968C506.502 414.968 505.393 414.894 504.259 414.746C500.342 414.303 496.572 412.825 493.246 410.755C489.92 419.181 481.715 425.538 472.623 426.277C472.081 426.327 471.514 426.351 470.923 426.351C464.492 426.351 457.766 423.321 452.887 418.738V513.499C460.205 508.029 470.332 506.329 478.758 509.655C489.624 514.017 496.72 526.508 494.946 538.113C494.724 539.592 493.468 540.627 491.989 540.627C491.841 540.627 491.694 540.627 491.546 540.627C489.92 540.331 488.811 538.853 489.033 537.226C490.437 528.208 484.967 518.599 476.541 515.199C468.41 511.947 458.283 514.83 452.887 521.704V544.84C452.887 544.889 452.887 544.938 452.887 544.988C452.887 544.988 452.887 545.012 452.887 545.062C452.592 550.014 456.731 559.549 461.905 563.171C471.514 569.971 486.298 571.598 501.377 567.532C512.612 564.502 523.7 555.04 531.978 541.587C536.635 533.9 538.705 525.547 537.67 518.008C536.487 509.729 531.313 502.412 524.513 499.529C524.463 499.48 524.439 499.455 524.439 499.455C522.665 500.785 520.817 501.894 518.821 502.781C515.495 504.186 511.947 504.851 508.325 504.851C502.855 504.851 497.385 503.299 492.95 500.268C491.62 499.307 491.25 497.459 492.137 496.129C493.098 494.724 494.946 494.429 496.276 495.316C502.116 499.233 510.025 500.046 516.456 497.311C522.886 494.502 527.839 488.294 529.022 481.345C530.204 474.471 527.617 466.932 522.443 462.201C521.26 461.092 521.186 459.17 522.295 457.988C523.404 456.805 525.252 456.731 526.508 457.84C533.087 463.901 536.413 473.51 534.935 482.38C534.122 487.037 531.978 491.472 528.948 495.094C534.861 498.346 539.592 504.186 542.031 511.06C550.236 513.795 560.584 509.581 567.606 504.703C578.989 496.794 585.642 483.341 585.346 468.78Z" fill="#515A6A"/>
<path d="M504.259 460.279C501.525 468.558 493.542 474.915 484.893 475.728C484.253 475.777 483.612 475.802 482.971 475.802C474.915 475.802 466.932 471.219 463.014 464.123C458.801 456.509 459.614 446.383 464.862 439.435C465.897 438.178 467.745 437.882 469.075 438.917C470.332 439.878 470.627 441.8 469.593 443.057C465.675 448.157 465.158 455.622 468.262 461.24C471.367 466.858 477.945 470.406 484.376 469.814C490.733 469.149 496.572 464.492 498.642 458.431C499.159 456.879 500.785 455.992 502.338 456.509C503.89 457.027 504.777 458.727 504.259 460.279Z" fill="#515A6A"/>
<path d="M98.6788 719.061C98.6788 685.503 125.806 658.376 159.29 658.376C192.849 658.376 219.976 685.503 219.976 719.061C219.976 752.546 192.849 779.673 159.29 779.673C125.806 779.673 98.6788 752.546 98.6788 719.061Z" fill="#32CCBC"/>
<path d="M187.674 705.904C187.674 721.575 174.961 734.288 159.29 734.288C143.62 734.288 130.98 721.575 130.98 705.904C130.98 690.234 143.62 677.594 159.29 677.594C174.961 677.594 187.674 690.234 187.674 705.904Z" fill="white"/>
<path d="M174.148 738.058C174.148 739.167 173.261 740.128 172.152 740.128H146.503C145.394 740.128 144.433 739.167 144.433 738.058C144.433 736.949 145.394 735.988 146.503 735.988H172.152C173.261 735.988 174.148 736.949 174.148 738.058Z" fill="white"/>
<path d="M174.148 743.454C174.148 744.636 173.261 745.523 172.152 745.523H146.503C145.394 745.523 144.433 744.636 144.433 743.454C144.433 742.345 145.394 741.458 146.503 741.458H172.152C173.261 741.458 174.148 742.345 174.148 743.454Z" fill="white"/>
<path d="M148.351 747.667H170.304V752.102C170.304 756.759 166.534 760.455 161.951 760.455H156.703C152.047 760.455 148.351 756.759 148.351 752.102V747.667Z" fill="white"/>
</svg>
